<?xml version="1.0" standalone="no"?>
<!DOCTYPE svg PUBLIC "-//W3C//DTD SVG 20010904//EN"
 "http://www.w3.org/TR/2001/REC-SVG-20010904/DTD/svg10.dtd">
<svg version="1.0" xmlns="http://www.w3.org/2000/svg"
 width="512.000000pt" height="512.000000pt" viewBox="0 0 512.000000 512.000000"
 preserveAspectRatio="xMidYMid meet">

<g transform="translate(0.000000,512.000000) scale(0.100000,-0.100000)"
fill="#000000" stroke="none">
<path d="M2188 4637 l-363 -304 -464 -39 c-255 -21 -470 -43 -477 -49 -11 -7
-25 -129 -55 -480 l-42 -469 -303 -360 c-167 -198 -304 -365 -304 -372 0 -7
73 -100 162 -206 89 -106 225 -269 303 -363 l142 -170 39 -464 c21 -255 43
-470 49 -477 7 -10 131 -25 479 -55 l470 -41 360 -305 c233 -196 367 -302 377
-300 10 3 178 139 375 304 l359 300 464 39 c255 21 470 43 477 49 10 7 25 132
55 479 l41 470 304 360 c167 198 304 366 304 373 0 7 -84 113 -187 235 -102
123 -239 286 -303 363 l-117 140 -39 464 c-21 255 -43 470 -49 477 -7 10 -133
25 -480 56 l-470 42 -359 303 c-198 167 -365 303 -372 303 -7 0 -176 -137
-376 -303z m713 -72 c183 -154 340 -286 350 -293 11 -8 182 -26 469 -52 249
-21 454 -41 456 -43 2 -2 15 -138 29 -303 14 -164 32 -371 40 -458 l14 -160
39 -40 c52 -54 504 -594 526 -628 11 -17 14 -32 9 -41 -4 -8 -132 -161 -283
-341 -151 -180 -280 -339 -287 -354 -6 -15 -29 -226 -49 -470 l-38 -442 -26 0
c-14 -1 -219 -18 -456 -39 l-431 -38 -347 -291 c-191 -161 -351 -292 -356
-292 -5 0 -165 131 -355 291 l-347 292 -457 39 c-251 22 -457 41 -458 42 -1 1
-20 207 -42 458 l-40 457 -290 346 c-160 190 -291 349 -291 353 0 15 43 68
295 366 143 169 267 317 275 328 13 18 65 534 85 837 3 47 7 86 9 88 2 2 207
21 456 43 435 38 454 41 484 64 17 14 175 146 351 295 176 148 323 269 327
268 4 -1 156 -128 339 -282z"/>
<path d="M2230 4387 l-315 -263 -400 -33 c-220 -18 -408 -35 -417 -37 -9 -3
-19 -13 -22 -22 -4 -14 -76 -777 -76 -809 0 -5 -119 -151 -265 -324 -155 -183
-265 -322 -265 -334 0 -11 110 -151 256 -325 140 -168 259 -314 264 -325 5
-11 23 -195 40 -410 17 -214 34 -398 36 -407 3 -10 15 -20 27 -23 18 -4 782
-75 808 -75 3 0 148 -119 320 -265 183 -154 322 -265 334 -265 11 0 154 112
335 263 l315 264 395 32 c217 17 405 34 417 36 13 3 25 15 28 28 5 20 75 770
75 801 0 8 119 155 265 327 156 185 265 322 265 334 0 12 -109 151 -263 335
l-263 315 -33 400 c-18 220 -35 408 -37 417 -3 9 -13 19 -22 22 -16 5 -765 76
-802 76 -9 0 -157 119 -330 265 -189 160 -322 265 -335 265 -11 0 -152 -111
-335 -263z m650 -85 l301 -253 397 -36 c218 -20 399 -38 402 -40 3 -3 68 -722
69 -778 1 -12 114 -155 260 -330 l259 -310 -22 -25 c-434 -514 -492 -585 -498
-613 -4 -18 -21 -200 -39 -404 l-33 -373 -30 -5 c-17 -2 -197 -18 -401 -35
-349 -29 -371 -32 -400 -54 -16 -13 -154 -128 -305 -255 -151 -127 -280 -230
-287 -229 -6 2 -145 116 -307 253 -163 138 -309 253 -324 256 -15 4 -197 22
-404 40 l-378 33 -5 31 c-2 16 -18 196 -35 399 -19 225 -36 375 -43 386 -7 9
-120 146 -252 304 -132 158 -240 294 -240 301 0 7 113 146 250 309 138 163
253 306 257 319 3 12 21 193 39 402 18 209 33 382 35 383 2 3 755 70 796 72 3
0 143 115 310 255 166 140 309 254 315 252 7 -1 148 -116 313 -255z"/>
<path d="M2532 3563 c-5 -10 -12 -35 -15 -57 -5 -31 -1 -45 17 -70 44 -58 58
-98 63 -178 5 -67 8 -78 24 -78 19 0 23 11 33 82 12 94 -32 245 -88 297 -23
22 -25 22 -34 4z"/>
<path d="M3457 3158 c-56 -77 -57 -79 -57 -176 0 -51 14 -244 31 -430 16 -185
33 -409 37 -497 l7 -160 25 0 c20 0 27 8 38 39 40 124 40 328 -3 901 -14 187
-25 343 -25 348 0 19 -31 4 -53 -25z"/>
<path d="M2754 3153 c-10 -50 -35 -111 -49 -123 -8 -6 -26 -10 -42 -8 -27 3
-28 5 -26 51 3 47 2 48 -23 45 -20 -2 -30 -14 -47 -57 -27 -67 -64 -98 -97
-81 -19 10 -21 17 -15 61 6 41 4 49 -9 49 -39 0 -73 -130 -47 -179 28 -51 118
-46 164 9 24 28 27 29 54 15 39 -21 64 -19 104 8 41 27 65 74 80 151 12 67 8
86 -20 86 -14 0 -22 -9 -27 -27z"/>
<path d="M3040 2848 c-56 -97 -56 -95 0 -430 28 -166 50 -316 48 -332 -4 -37
-40 -50 -112 -41 -63 8 -118 36 -150 77 -45 60 -49 77 -111 483 -20 126 -38
231 -40 233 -18 18 -74 -65 -96 -143 -7 -22 2 -97 32 -273 23 -133 38 -253 35
-266 -9 -36 -53 -84 -100 -108 -30 -16 -65 -23 -126 -25 -112 -6 -163 18 -199
91 -24 48 -25 56 -28 340 -3 160 -6 297 -9 305 -11 35 -97 -83 -109 -151 -7
-36 -10 -38 -141 -102 -206 -100 -262 -140 -322 -230 -80 -120 -81 -182 -5
-224 57 -31 161 -52 266 -52 l89 0 57 58 58 57 11 -63 c21 -126 87 -191 212
-211 164 -26 325 50 362 172 13 44 22 46 37 9 18 -43 89 -108 146 -133 37 -17
70 -22 125 -23 118 0 156 27 196 144 42 120 41 170 -9 500 -25 162 -49 316
-53 343 -8 62 -26 61 -64 -5z m-970 -506 l0 -139 -27 -13 c-75 -35 -265 -19
-323 28 l-23 19 65 47 c36 25 110 71 164 102 55 30 108 64 119 75 11 10 21 19
22 19 2 0 3 -62 3 -138z"/>
</g>
</svg>
