<?xml version="1.0" standalone="no"?>
<!DOCTYPE svg PUBLIC "-//W3C//DTD SVG 20010904//EN"
 "http://www.w3.org/TR/2001/REC-SVG-20010904/DTD/svg10.dtd">
<svg version="1.0" xmlns="http://www.w3.org/2000/svg"
 width="512.000000pt" height="512.000000pt" viewBox="0 0 512.000000 512.000000"
 preserveAspectRatio="xMidYMid meet">

<g transform="translate(0.000000,512.000000) scale(0.100000,-0.100000)"
fill="#000000" stroke="none">
<path d="M910 5102 c-64 -35 -74 -60 -80 -190 l-5 -117 -190 -6 c-202 -6 -237
-12 -323 -61 -102 -58 -179 -152 -224 -274 -20 -56 -22 -78 -26 -480 l-4 -421
1878 -6 c1032 -4 2158 -7 2501 -7 l623 0 0 418 c0 379 -2 423 -19 482 -48 164
-163 282 -330 337 -31 11 -103 17 -227 20 l-182 5 -4 109 c-3 89 -7 113 -24
135 -70 94 -190 96 -251 5 -20 -30 -23 -46 -23 -142 l0 -109 -149 0 -149 0 -4
109 c-2 92 -6 114 -24 137 -70 94 -190 96 -251 5 -20 -30 -23 -46 -23 -142 l0
-109 -212 0 c-117 0 -493 -3 -834 -7 l-621 -6 -5 110 c-3 85 -9 118 -24 143
-56 97 -182 105 -249 16 -17 -23 -21 -47 -25 -144 l-5 -117 -146 -3 -147 -3
-3 108 c-5 117 -19 157 -70 196 -39 28 -106 33 -149 9z"/>
</g>
</svg>
