<?xml version="1.0" standalone="no"?>
<!DOCTYPE svg PUBLIC "-//W3C//DTD SVG 20010904//EN"
 "http://www.w3.org/TR/2001/REC-SVG-20010904/DTD/svg10.dtd">
<svg version="1.0" xmlns="http://www.w3.org/2000/svg"
 width="64.000000pt" height="64.000000pt" viewBox="0 0 64.000000 64.000000"
 preserveAspectRatio="xMidYMid meet">

<g transform="translate(0.000000,64.000000) scale(0.100000,-0.100000)"
fill="#000000" stroke="none">
<path d="M150 570 c0 -23 -4 -30 -20 -30 -19 0 -20 -7 -20 -250 l0 -250 175 0
175 0 0 25 c0 23 4 25 40 25 27 0 40 4 40 14 0 7 13 16 29 19 52 11 52 73 0
84 l-29 6 0 151 0 152 -43 42 -43 42 -152 0 -152 0 0 -30z m300 -15 c0 -33 2
-35 35 -35 l35 0 0 -155 0 -155 -115 0 c-87 0 -123 -4 -150 -17 -19 -9 -35
-20 -35 -24 0 -4 16 -16 36 -28 30 -18 51 -21 150 -21 69 0 114 -4 114 -10 0
-6 -65 -10 -175 -10 l-175 0 0 245 0 245 140 0 140 0 0 -35z m40 0 l23 -25
-26 0 c-22 0 -27 5 -27 25 0 14 1 25 3 25 2 0 14 -11 27 -25z m-340 -245 l0
-220 150 0 c127 0 150 -2 150 -15 0 -13 -25 -15 -165 -15 l-165 0 0 235 c0
202 2 235 15 235 13 0 15 -31 15 -220z m390 -125 c0 -12 -19 -15 -114 -15 -92
0 -115 3 -120 15 -5 13 12 15 114 15 100 0 120 -3 120 -15z m49 1 c15 -18 3
-46 -20 -46 -13 0 -19 7 -19 23 0 37 18 48 39 23z m-293 -13 c5 -16 18 -18
124 -15 83 2 120 0 120 -8 0 -14 -257 -12 -284 2 -19 10 -19 11 -1 24 25 19
36 18 41 -3z"/>
<path d="M210 480 c0 -27 3 -30 30 -30 27 0 30 3 30 30 0 27 -3 30 -30 30 -27
0 -30 -3 -30 -30z m50 0 c0 -13 -7 -20 -20 -20 -13 0 -20 7 -20 20 0 13 7 20
20 20 13 0 20 -7 20 -20z"/>
<path d="M308 493 c12 -2 32 -2 45 0 12 2 2 4 -23 4 -25 0 -35 -2 -22 -4z"/>
<path d="M333 463 c26 -2 67 -2 90 0 23 2 2 3 -48 3 -49 0 -68 -1 -42 -3z"/>
<path d="M210 400 c0 -27 3 -30 30 -30 27 0 30 3 30 30 0 27 -3 30 -30 30 -27
0 -30 -3 -30 -30z m50 0 c0 -13 -7 -20 -20 -20 -13 0 -20 7 -20 20 0 13 7 20
20 20 13 0 20 -7 20 -20z"/>
<path d="M308 413 c12 -2 32 -2 45 0 12 2 2 4 -23 4 -25 0 -35 -2 -22 -4z"/>
<path d="M333 383 c26 -2 67 -2 90 0 23 2 2 3 -48 3 -49 0 -68 -1 -42 -3z"/>
<path d="M210 320 c0 -27 3 -30 30 -30 27 0 30 3 30 30 0 27 -3 30 -30 30 -27
0 -30 -3 -30 -30z m50 0 c0 -13 -7 -20 -20 -20 -13 0 -20 7 -20 20 0 13 7 20
20 20 13 0 20 -7 20 -20z"/>
<path d="M308 333 c12 -2 32 -2 45 0 12 2 2 4 -23 4 -25 0 -35 -2 -22 -4z"/>
<path d="M333 303 c26 -2 67 -2 90 0 23 2 2 3 -48 3 -49 0 -68 -1 -42 -3z"/>
<path d="M546 585 c-9 -24 4 -45 29 -45 29 0 38 13 30 40 -8 24 -50 27 -59 5z
m50 -6 c9 -15 -11 -33 -30 -26 -9 4 -13 13 -10 22 7 17 30 20 40 4z"/>
<path d="M560 490 c0 -5 5 -10 11 -10 5 0 7 5 4 10 -3 6 -8 10 -11 10 -2 0 -4
-4 -4 -10z"/>
<path d="M33 194 c-3 -8 1 -22 9 -30 13 -14 17 -14 32 1 13 13 14 20 5 31 -15
19 -38 18 -46 -2z m34 -20 c-9 -9 -28 6 -21 18 4 6 10 6 17 -1 6 -6 8 -13 4
-17z"/>
</g>
</svg>
