<?xml version="1.0" encoding="iso-8859-1"?>
<!-- Uploaded to: SVG Repo, www.svgrepo.com, Generator: SVG Repo Mixer Tools -->
<svg fill="#000000" height="800px" width="800px" version="1.1" id="Layer_1" xmlns="http://www.w3.org/2000/svg" xmlns:xlink="http://www.w3.org/1999/xlink" 
	 viewBox="0 0 512 512" xml:space="preserve">
<g>
	<g>
		<path d="M506.018,448.373c-0.594-0.206-28.05-9.954-72.85-20.129V225.438c21.333-12.108,34.667-34.754,34.667-59.134
			c0-34.875-54.934-107.913-61.225-116.126c-3.233-4.208-10.184-4.208-13.417,0c-6.292,8.213-61.959,81.25-61.959,116.126
			c0,24.379,14.467,47.025,33.667,59.134v77.08h-24.958c-4.292-42.667-40.734-76.801-84.909-76.801
			c-44.175,0-80.617,34.134-84.909,76.801h-18.558v-77.08c21.333-12.108,34.667-34.754,34.667-59.134
			c0-34.875-54.934-107.913-61.225-116.126c-3.233-4.208-10.184-4.208-13.417,0c-6.292,8.213-61.959,81.25-61.959,116.126
			c0,24.379,14.467,47.025,33.667,59.134v201.409c-44.8,10.662-77.163,21.311-77.784,21.526c-4.45,1.537-6.55,6.392-5.017,10.85
			c1.217,3.533,4.658,5.754,8.2,5.754c0.925,0,1.925-0.154,2.85-0.471c1.225-0.421,123.809-42.2,244.718-42.2
			c120.801,0,243.477,41.779,244.702,42.2c4.475,1.538,9.058-0.829,10.592-5.287C513.093,454.765,510.468,449.911,506.018,448.373z
			 M416.101,220.292v204.081c-44.8-9.915-103.376-19.133-160.868-19.133c-54.998,0-110.068,8.437-154.868,17.848V220.292
			c0-3.296-1.367-6.296-4.342-7.708c-17.775-8.442-28.992-26.608-28.992-46.279c0-21.717,32.575-70.846,51.334-96.646
			c18.767,25.796,51.267,74.913,51.267,96.646c0,19.671-11.983,37.838-29.759,46.279c-2.975,1.413-5.375,4.413-5.375,7.708v91.08
			c0,4.713,4.883,8.213,9.6,8.213h34.134c4.717,0,8.533-3.66,8.533-8.373c0-37.642,30.625-68.187,68.267-68.187
			S323.3,273.53,323.3,311.172c0,4.713,3.817,8.413,8.533,8.413h42.667c4.717,0,7.467-3.5,7.467-8.213v-91.08
			c0-3.296-1.367-6.296-4.342-7.708c-17.775-8.442-28.992-26.608-28.992-46.279c0-21.717,32.575-70.846,51.334-96.646
			c18.767,25.796,51.267,74.913,51.267,96.646c0,19.671-11.983,37.838-29.759,46.279
			C418.501,213.997,416.101,216.997,416.101,220.292z"/>
	</g>
</g>
</svg>