<?xml version="1.0" standalone="no"?>
<!DOCTYPE svg PUBLIC "-//W3C//DTD SVG 20010904//EN"
 "http://www.w3.org/TR/2001/REC-SVG-20010904/DTD/svg10.dtd">
<svg version="1.0" xmlns="http://www.w3.org/2000/svg"
 width="512.000000pt" height="512.000000pt" viewBox="0 0 512.000000 512.000000"
 preserveAspectRatio="xMidYMid meet">

<g transform="translate(0.000000,512.000000) scale(0.100000,-0.100000)"
fill="#000000" stroke="none">
<path d="M4480 4922 c-14 -2 -470 -150 -1013 -328 l-988 -324 -815 0 c-881 0
-854 2 -912 -53 -57 -53 -62 -78 -62 -314 l0 -218 -267 -89 c-148 -48 -287
-99 -310 -112 -44 -25 -93 -105 -93 -152 0 -25 654 -3034 671 -3088 5 -17 21
-36 35 -43 35 -16 4140 -16 4214 0 65 14 133 75 149 134 8 28 11 581 11 1906
l0 1865 -26 53 c-17 34 -41 62 -67 79 -36 24 -51 27 -149 31 -101 3 -108 5
-113 25 -2 11 -11 113 -20 226 -18 236 -27 282 -61 328 -40 51 -122 85 -184
74z m85 -142 c15 -17 22 -62 40 -263 12 -133 21 -243 20 -245 -1 -1 -394 -1
-873 0 l-872 3 793 261 c466 154 809 262 833 263 29 1 46 -5 59 -19z m370
-636 c47 -18 45 62 45 -1918 l0 -1855 -24 -28 -24 -28 -2060 -3 -2059 -2 -7
1692 c-7 1659 -2 2079 23 2127 l12 21 2039 0 c1121 0 2046 -3 2055 -6z m-4246
-1956 c0 -780 -4 -1350 -9 -1333 -5 17 -129 579 -275 1250 -295 1354 -280
1260 -201 1290 97 36 452 154 469 154 16 1 17 -70 16 -1361z"/>
<path d="M1415 3755 l-25 -24 0 -326 0 -326 25 -25 c25 -25 55 -26 80 -2 6 5
12 109 15 249 l5 239 194 -250 c106 -137 201 -251 210 -251 32 -3 46 3 64 23
15 18 17 50 17 345 l0 324 -25 24 c-28 29 -42 31 -73 9 -22 -15 -22 -19 -22
-250 0 -129 -3 -234 -7 -234 -5 1 -91 109 -193 241 -101 133 -192 245 -202
250 -26 14 -37 11 -63 -16z"/>
<path d="M2130 3760 c-19 -19 -20 -33 -20 -354 0 -362 -1 -358 54 -372 13 -3
96 -4 185 -2 147 3 164 5 177 22 18 26 18 61 -2 80 -12 13 -41 16 -155 16
l-139 0 0 100 0 100 139 0 c114 0 143 3 155 16 20 19 20 54 2 80 -13 17 -29
19 -155 22 l-141 4 0 94 0 94 138 0 c122 0 141 2 155 18 24 26 21 68 -5 86
-18 13 -55 16 -195 16 -160 0 -175 -2 -193 -20z"/>
<path d="M2654 3755 c-19 -19 -23 -31 -18 -48 9 -30 244 -650 247 -652 1 -1
13 -8 26 -15 48 -25 66 5 164 263 50 131 92 235 95 233 2 -3 44 -110 92 -238
95 -251 112 -278 162 -259 14 5 29 18 33 28 48 120 245 649 245 658 0 16 -43
55 -62 55 -36 0 -59 -44 -144 -272 -49 -130 -92 -234 -95 -230 -4 4 -43 106
-89 227 -45 121 -88 230 -96 243 -15 23 -52 29 -83 13 -10 -6 -51 -100 -106
-245 -49 -130 -92 -236 -95 -236 -4 0 -46 105 -94 233 -103 273 -123 301 -182
242z"/>
<path d="M3920 3767 c-19 -6 -56 -32 -81 -57 -77 -77 -87 -177 -25 -268 49
-72 97 -92 224 -92 116 0 162 -14 181 -56 23 -52 5 -105 -44 -129 -26 -12 -70
-15 -203 -15 -165 0 -171 -1 -186 -22 -22 -31 -20 -45 9 -73 24 -25 27 -25
188 -25 195 0 245 11 299 67 94 96 90 225 -9 314 -49 44 -107 59 -231 59 -100
0 -124 11 -142 64 -12 39 -3 71 30 101 20 18 39 20 203 23 149 3 185 6 199 19
24 21 23 58 -2 83 -19 19 -33 20 -197 19 -100 -1 -193 -6 -213 -12z"/>
<path d="M1415 2635 l-25 -24 0 -553 c0 -485 2 -556 16 -576 l15 -22 573 0
c431 0 575 3 584 12 9 9 12 153 12 584 l0 573 -22 15 c-20 14 -91 16 -576 16
l-553 0 -24 -25z m1055 -580 l0 -485 -477 2 -478 3 -3 470 c-1 259 0 476 3
483 3 9 109 12 480 12 l475 0 0 -485z"/>
<path d="M2960 2653 c-40 -14 -53 -69 -22 -96 17 -16 81 -17 721 -17 465 0
709 3 722 10 13 7 19 21 19 45 0 68 34 65 -735 64 -379 0 -697 -3 -705 -6z"/>
<path d="M2960 2283 c-40 -14 -53 -69 -22 -96 17 -16 81 -17 721 -17 465 0
709 3 722 10 13 7 19 21 19 45 0 68 34 65 -735 64 -379 0 -697 -3 -705 -6z"/>
<path d="M2960 1913 c-40 -14 -53 -69 -22 -96 17 -16 81 -17 721 -17 465 0
709 3 722 10 13 7 19 21 19 45 0 68 34 65 -735 64 -379 0 -697 -3 -705 -6z"/>
<path d="M2960 1543 c-40 -14 -53 -69 -22 -96 17 -16 81 -17 721 -17 465 0
709 3 722 10 13 7 19 21 19 45 0 68 34 65 -735 64 -379 0 -697 -3 -705 -6z"/>
<path d="M1530 1162 c-25 -20 -30 -63 -10 -87 11 -13 181 -15 1427 -15 956 0
1421 3 1434 10 13 7 19 21 19 45 0 70 111 65 -1446 65 -1338 0 -1403 -1 -1424
-18z"/>
<path d="M1530 792 c-25 -20 -30 -63 -10 -87 11 -13 181 -15 1427 -15 956 0
1421 3 1434 10 13 7 19 21 19 45 0 70 111 65 -1446 65 -1338 0 -1403 -1 -1424
-18z"/>
</g>
</svg>
