<?xml version="1.0" standalone="no"?>
<!DOCTYPE svg PUBLIC "-//W3C//DTD SVG 20010904//EN"
 "http://www.w3.org/TR/2001/REC-SVG-20010904/DTD/svg10.dtd">
<svg version="1.0" xmlns="http://www.w3.org/2000/svg"
 width="512.000000pt" height="512.000000pt" viewBox="0 0 512.000000 512.000000"
 preserveAspectRatio="xMidYMid meet">

<g transform="translate(0.000000,512.000000) scale(0.100000,-0.100000)"
fill="#000000" stroke="none">
<path d="M3686 5110 c-416 -66 -754 -363 -870 -764 -37 -127 -51 -275 -36
-398 52 -452 353 -804 790 -926 86 -24 111 -27 270 -27 198 0 273 15 430 84
484 212 741 761 594 1267 -105 363 -396 646 -759 740 -112 28 -315 40 -419 24z
m363 -231 c311 -78 563 -342 626 -658 23 -111 16 -294 -14 -399 -82 -282 -301
-502 -586 -588 -80 -24 -106 -27 -235 -27 -129 0 -155 3 -235 27 -232 70 -419
226 -525 437 -58 115 -81 204 -87 345 -11 248 64 449 236 627 213 222 522 311
820 236z"/>
<path d="M2205 4473 c-188 -22 -366 -73 -516 -148 -365 -182 -632 -489 -758
-870 -69 -210 -73 -248 -81 -820 -7 -459 -9 -519 -27 -600 -31 -134 -67 -237
-129 -360 -77 -154 -166 -274 -314 -422 -106 -107 -129 -136 -143 -178 -26
-83 -29 -112 -17 -172 21 -104 90 -191 185 -235 l50 -23 575 -3 576 -3 16 -69
c61 -257 273 -473 538 -546 101 -28 292 -26 390 5 235 73 403 227 494 454 14
36 29 86 32 111 l7 45 581 3 581 3 63 34 c70 38 101 70 140 145 22 43 26 64
26 136 0 119 -21 156 -182 317 -144 144 -227 259 -302 416 -109 229 -140 370
-147 682 l-6 230 -32 32 c-46 46 -103 46 -147 3 l-30 -31 5 -252 c4 -208 9
-269 26 -351 76 -348 219 -612 467 -866 75 -76 135 -147 139 -162 10 -38 -20
-93 -60 -112 -29 -14 -219 -16 -1854 -16 -1965 0 -1867 -3 -1905 51 -9 13 -16
41 -16 63 0 37 6 46 94 131 222 213 362 432 456 711 75 225 82 291 90 869 8
545 9 554 65 721 117 349 402 645 754 784 123 48 350 90 489 90 40 0 53 5 74
28 36 37 43 71 24 116 -21 50 -63 66 -163 65 -43 -1 -91 -4 -108 -6z m659
-3855 c-20 -67 -45 -121 -78 -172 -107 -160 -322 -256 -510 -226 -128 20 -217
66 -314 162 -54 54 -116 163 -128 226 l-6 32 521 0 522 0 -7 -22z"/>
</g>
</svg>
