<?xml version="1.0" standalone="no"?>
<!DOCTYPE svg PUBLIC "-//W3C//DTD SVG 20010904//EN"
 "http://www.w3.org/TR/2001/REC-SVG-20010904/DTD/svg10.dtd">
<svg version="1.0" xmlns="http://www.w3.org/2000/svg"
 width="512.000000pt" height="512.000000pt" viewBox="0 0 512.000000 512.000000"
 preserveAspectRatio="xMidYMid meet">

<g transform="translate(0.000000,512.000000) scale(0.100000,-0.100000)"
fill="#000000" stroke="none">
<path d="M2295 5101 c-27 -13 -176 -155 -447 -427 -344 -346 -408 -415 -417
-449 -30 -111 7 -214 92 -256 27 -13 173 -151 397 -374 331 -329 358 -353 403
-364 152 -37 281 113 222 257 -11 24 -110 131 -290 312 -151 152 -275 278
-275 282 0 3 50 18 111 33 315 75 640 73 946 -6 654 -168 1181 -691 1352
-1341 40 -149 50 -212 61 -365 66 -937 -583 -1793 -1505 -1983 -1065 -220
-2095 499 -2261 1580 -22 141 -22 421 0 560 44 281 137 521 293 756 47 71 57
94 61 139 9 108 -64 194 -171 202 -109 9 -181 -63 -320 -321 -177 -328 -259
-666 -258 -1066 0 -210 17 -352 62 -539 200 -818 842 -1463 1654 -1662 208
-51 319 -63 555 -63 236 0 348 12 555 63 377 93 724 282 1009 552 378 358 623
837 691 1354 23 172 21 463 -4 630 -73 486 -280 906 -621 1259 -374 387 -872
625 -1420 677 -120 11 -435 7 -505 -7 -25 -5 -8 16 117 142 183 185 205 230
159 329 -45 98 -152 140 -246 96z"/>
</g>
</svg>
