<svg width="78" height="78" viewBox="0 0 78 78" fill="none" xmlns="http://www.w3.org/2000/svg">
<rect x="78" y="78" width="78" height="78" rx="39" transform="rotate(180 78 78)" fill="#619984"/>
<path d="M20.2913 12.2143C20.2913 14.6786 19.8746 15.4286 18.2079 15.4286C16.2287 15.4286 16.1246 16.1786 16.1246 42.2143V69H34.3539H52.5832V66.3214C52.5832 63.8571 52.9998 63.6429 56.7499 63.6429C59.5624 63.6429 60.9165 63.2143 60.9165 62.1429C60.9165 61.3929 62.2707 60.4286 63.9374 60.1071C69.3541 58.9286 69.3541 52.2857 63.9374 51.1071L60.9165 50.4643V34.2857V18L56.4373 13.5L51.9582 9H36.1247H20.2913V12.2143ZM51.5415 13.8214C51.5415 17.3571 51.7498 17.5714 55.1873 17.5714H58.8332V34.1786V50.7857H46.854C37.7914 50.7857 34.0414 51.2143 31.2288 52.6071C29.2497 53.5714 27.583 54.75 27.583 55.1786C27.583 55.6071 29.2497 56.8929 31.333 58.1786C34.458 60.1071 36.6455 60.4286 46.9581 60.4286C54.1457 60.4286 58.8332 60.8571 58.8332 61.5C58.8332 62.1429 52.0623 62.5714 40.6039 62.5714H22.3746V36.3214V10.0714H36.958H51.5415V13.8214ZM55.7082 13.8214L58.104 16.5H55.3957C53.104 16.5 52.5832 15.9643 52.5832 13.8214C52.5832 12.3214 52.6873 11.1429 52.8957 11.1429C53.104 11.1429 54.354 12.3214 55.7082 13.8214ZM20.2913 40.0714V63.6429H35.9164C49.1456 63.6429 51.5415 63.8571 51.5415 65.25C51.5415 66.6429 48.9373 66.8571 34.3539 66.8571H17.1662V41.6786C17.1662 20.0357 17.3746 16.5 18.7288 16.5C20.0829 16.5 20.2913 19.8214 20.2913 40.0714ZM60.9165 53.4643C60.9165 54.75 58.9374 55.0714 49.0415 55.0714C39.4581 55.0714 37.0622 54.75 36.5414 53.4643C36.0205 52.0714 37.7914 51.8571 48.4165 51.8571C58.8332 51.8571 60.9165 52.1786 60.9165 53.4643ZM66.0207 53.3571C67.5833 55.2857 66.3332 58.2857 63.9374 58.2857C62.5832 58.2857 61.9582 57.5357 61.9582 55.8214C61.9582 51.8571 63.8332 50.6786 66.0207 53.3571ZM35.4997 54.75C36.0205 56.4643 37.3747 56.6786 48.4165 56.3571C57.0624 56.1429 60.9165 56.3571 60.9165 57.2143C60.9165 58.7143 34.1455 58.5 31.333 57C29.3538 55.9286 29.3538 55.8214 31.2288 54.4286C33.833 52.3929 34.9789 52.5 35.4997 54.75Z" fill="white"/>
<path d="M26.5415 21.8572C26.5415 24.75 26.854 25.0715 29.6665 25.0715C32.479 25.0715 32.7915 24.75 32.7915 21.8572C32.7915 18.9643 32.479 18.6429 29.6665 18.6429C26.854 18.6429 26.5415 18.9643 26.5415 21.8572ZM31.7499 21.8572C31.7499 23.25 31.0207 24 29.6665 24C28.3123 24 27.5832 23.25 27.5832 21.8572C27.5832 20.4643 28.3123 19.7143 29.6665 19.7143C31.0207 19.7143 31.7499 20.4643 31.7499 21.8572Z" fill="white"/>
<path d="M36.7497 20.4643C37.9997 20.6786 40.083 20.6786 41.4372 20.4643C42.6872 20.25 41.6455 20.0357 39.0414 20.0357C36.4372 20.0357 35.3955 20.25 36.7497 20.4643Z" fill="white"/>
<path d="M39.354 23.6786C42.0623 23.8929 46.3332 23.8929 48.729 23.6786C51.1249 23.4643 48.9374 23.3572 43.729 23.3572C38.6248 23.3572 36.6456 23.4643 39.354 23.6786Z" fill="white"/>
<path d="M26.5415 30.4286C26.5415 33.3214 26.854 33.6429 29.6665 33.6429C32.479 33.6429 32.7915 33.3214 32.7915 30.4286C32.7915 27.5357 32.479 27.2143 29.6665 27.2143C26.854 27.2143 26.5415 27.5357 26.5415 30.4286ZM31.7499 30.4286C31.7499 31.8214 31.0207 32.5714 29.6665 32.5714C28.3123 32.5714 27.5832 31.8214 27.5832 30.4286C27.5832 29.0357 28.3123 28.2857 29.6665 28.2857C31.0207 28.2857 31.7499 29.0357 31.7499 30.4286Z" fill="white"/>
<path d="M36.7497 29.0357C37.9997 29.25 40.083 29.25 41.4372 29.0357C42.6872 28.8214 41.6455 28.6072 39.0414 28.6072C36.4372 28.6072 35.3955 28.8214 36.7497 29.0357Z" fill="white"/>
<path d="M39.354 32.25C42.0623 32.4643 46.3332 32.4643 48.729 32.25C51.1249 32.0357 48.9374 31.9286 43.729 31.9286C38.6248 31.9286 36.6456 32.0357 39.354 32.25Z" fill="white"/>
<path d="M26.5415 39C26.5415 41.8928 26.854 42.2143 29.6665 42.2143C32.479 42.2143 32.7915 41.8928 32.7915 39C32.7915 36.1071 32.479 35.7857 29.6665 35.7857C26.854 35.7857 26.5415 36.1071 26.5415 39ZM31.7499 39C31.7499 40.3928 31.0207 41.1428 29.6665 41.1428C28.3123 41.1428 27.5832 40.3928 27.5832 39C27.5832 37.6071 28.3123 36.8571 29.6665 36.8571C31.0207 36.8571 31.7499 37.6071 31.7499 39Z" fill="white"/>
<path d="M36.7497 37.6071C37.9997 37.8214 40.083 37.8214 41.4372 37.6071C42.6872 37.3928 41.6455 37.1785 39.0414 37.1785C36.4372 37.1785 35.3955 37.3928 36.7497 37.6071Z" fill="white"/>
<path d="M39.354 40.8214C42.0623 41.0357 46.3332 41.0357 48.729 40.8214C51.1249 40.6071 48.9374 40.5 43.729 40.5C38.6248 40.5 36.6456 40.6071 39.354 40.8214Z" fill="white"/>
<path d="M61.5416 10.6072C60.6041 13.1786 61.9583 15.4286 64.5625 15.4286C67.5833 15.4286 68.5208 14.0358 67.6875 11.1429C66.8542 8.57148 62.4791 8.25005 61.5416 10.6072ZM66.75 11.25C67.6875 12.8572 65.6042 14.7858 63.625 14.0358C62.6875 13.6072 62.2708 12.6429 62.5833 11.6786C63.3125 9.85719 65.7083 9.53576 66.75 11.25Z" fill="white"/>
<path d="M63 20.7857C63 21.3215 63.5208 21.8572 64.1458 21.8572C64.6667 21.8572 64.875 21.3215 64.5625 20.7857C64.25 20.1429 63.7292 19.7143 63.4167 19.7143C63.2083 19.7143 63 20.1429 63 20.7857Z" fill="white"/>
<path d="M8.10376 52.5C7.79125 53.3572 8.20792 54.8572 9.04126 55.7143C10.3954 57.2143 10.8121 57.2143 12.3746 55.6072C13.7288 54.2143 13.833 53.4643 12.8955 52.2857C11.3329 50.25 8.93709 50.3572 8.10376 52.5ZM11.6454 54.6429C10.7079 55.6072 8.72876 54 9.45793 52.7143C9.8746 52.0715 10.4996 52.0715 11.2288 52.8215C11.8538 53.4643 12.0621 54.2143 11.6454 54.6429Z" fill="white"/>
</svg>
