<svg width="390" height="199" viewBox="0 0 390 199" fill="none" xmlns="http://www.w3.org/2000/svg">
<rect y="-30" width="390" height="202" rx="25" fill="#73CDAC" fill-opacity="0.83"/>
<g clip-path="url(#clip0_30_20)">
<path d="M192.546 172.157C192.303 172.07 181.042 167.958 162.667 163.665V78.1067C171.416 72.9986 176.885 63.4448 176.885 53.1595C176.885 38.4466 154.354 7.6337 151.774 4.16884C150.448 2.39359 147.597 2.39359 146.271 4.16884C143.69 7.6337 120.858 38.4462 120.858 53.1595C120.858 63.4444 126.791 72.9982 134.666 78.1067V110.625H124.43C122.669 92.6246 107.722 78.2244 89.6038 78.2244C71.4851 78.2244 56.5382 92.6246 54.7778 110.625H47.1661V78.1067C55.916 72.9986 61.385 63.4448 61.385 53.1595C61.385 38.4466 38.8535 7.6337 36.2732 4.16884C34.9472 2.39359 32.0962 2.39359 30.7701 4.16884C28.1894 7.6337 5.35728 38.4462 5.35728 53.1595C5.35728 63.4444 11.291 72.9982 19.166 78.1067V163.076C0.791006 167.574 -12.4829 172.067 -12.7376 172.157C-14.5628 172.806 -15.4241 174.854 -14.7953 176.735C-14.2962 178.225 -12.8848 179.162 -11.4321 179.162C-11.0527 179.162 -10.6425 179.097 -10.2631 178.963C-9.76067 178.786 40.5179 161.16 90.1095 161.16C139.657 161.16 189.973 178.786 190.476 178.963C192.311 179.612 194.191 178.614 194.82 176.733C195.448 174.854 194.372 172.806 192.546 172.157ZM155.666 75.9357V162.032C137.291 157.849 113.266 153.961 89.6854 153.961C67.1276 153.961 44.5403 157.52 26.1653 161.49V75.9357C26.1653 74.5452 25.6046 73.2796 24.3844 72.6839C17.0939 69.1224 12.4932 61.4586 12.4932 53.1599C12.4932 43.9981 25.854 23.2718 33.5481 12.3874C41.2455 23.2701 54.5756 43.9913 54.5756 53.1599C54.5756 61.4586 49.6607 69.1228 42.3698 72.6839C41.1496 73.28 40.1652 74.5456 40.1652 75.9357V114.36C40.1652 116.348 42.168 117.825 44.1027 117.825H58.103C60.0377 117.825 61.6028 116.281 61.6028 114.293C61.6028 98.4123 74.1639 85.5262 89.603 85.5262C105.042 85.5262 117.604 98.3955 117.604 114.276C117.604 116.264 119.169 117.825 121.103 117.825H138.604C140.538 117.825 141.666 116.348 141.666 114.36V75.9357C141.666 74.5452 141.105 73.2796 139.885 72.6839C132.595 69.1224 127.994 61.4586 127.994 53.1599C127.994 43.9981 141.355 23.2718 149.049 12.3874C156.746 23.2701 170.076 43.9913 170.076 53.1599C170.076 61.4586 165.162 69.1228 157.871 72.6839C156.651 73.28 155.666 74.5456 155.666 75.9357Z" fill="#FFF9F9" fill-opacity="0.07"/>
</g>
<g clip-path="url(#clip1_30_20)">
<path d="M406.266 162.343C405.995 162.26 393.446 158.361 372.971 154.291V73.1719C382.721 68.3288 388.815 59.2708 388.815 49.5191C388.815 35.5697 363.709 6.35554 360.833 3.07046C359.356 1.38732 356.179 1.38732 354.701 3.07046C351.826 6.35554 326.384 35.5693 326.384 49.5191C326.384 59.2704 332.996 68.3285 341.771 73.1719V104.003H330.365C328.403 86.9366 311.748 73.2835 291.559 73.2835C271.369 73.2835 254.714 86.9366 252.752 104.003H244.271V73.1719C254.021 68.3288 260.115 59.2708 260.115 49.5191C260.115 35.5697 235.008 6.35554 232.133 3.07046C230.655 1.38732 227.479 1.38732 226.001 3.07046C223.125 6.35554 197.684 35.5693 197.684 49.5191C197.684 59.2704 204.296 68.3285 213.071 73.1719V153.732C192.596 157.997 177.805 162.257 177.521 162.343C175.487 162.957 174.527 164.899 175.228 166.682C175.784 168.096 177.357 168.984 178.976 168.984C179.398 168.984 179.856 168.922 180.278 168.796C180.838 168.627 236.863 151.916 292.122 151.916C347.332 151.916 403.399 168.627 403.958 168.796C406.004 169.411 408.098 168.464 408.799 166.681C409.5 164.899 408.3 162.958 406.266 162.343ZM365.171 71.1136V152.743C344.696 148.777 317.925 145.09 291.649 145.09C266.514 145.09 241.345 148.465 220.87 152.229V71.1136C220.87 69.7952 220.245 68.5952 218.886 68.0305C210.762 64.6538 205.635 57.3877 205.635 49.5195C205.635 40.8331 220.523 21.1822 229.097 10.8626C237.674 21.1806 252.527 40.8267 252.527 49.5195C252.527 57.3877 247.051 64.6542 238.926 68.0305C237.567 68.5956 236.47 69.7956 236.47 71.1136V107.544C236.47 109.429 238.701 110.829 240.857 110.829H256.458C258.613 110.829 260.357 109.365 260.357 107.48C260.357 92.424 274.354 80.2064 291.558 80.2064C308.761 80.2064 322.758 92.408 322.758 107.464C322.758 109.349 324.503 110.829 326.658 110.829H346.158C348.314 110.829 349.571 109.429 349.571 107.544V71.1136C349.571 69.7952 348.946 68.5952 347.586 68.0305C339.463 64.6538 334.336 57.3877 334.336 49.5195C334.336 40.8331 349.224 21.1822 357.797 10.8626C366.375 21.1806 381.228 40.8267 381.228 49.5195C381.228 57.3877 375.751 64.6542 367.627 68.0305C366.268 68.5956 365.171 69.7956 365.171 71.1136Z" fill="#FFF9F9" fill-opacity="0.07"/>
</g>
<defs>
<clipPath id="clip0_30_20">
<rect width="210" height="216" fill="white" transform="translate(-15 -17)"/>
</clipPath>
<clipPath id="clip1_30_20">
<rect width="234" height="204.792" fill="white" transform="translate(175 -17)"/>
</clipPath>
</defs>
</svg>
